<svg width="140" height="105" viewBox="0 0 140 105" fill="none" xmlns="http://www.w3.org/2000/svg">
<g clip-path="url(#clip0_27:380)">
<path d="M0 32.2259H140.088" stroke="white" stroke-width="0.25" stroke-miterlimit="10"/>
<path d="M140.088 66.3857H0" stroke="white" stroke-width="0.25" stroke-miterlimit="10"/>
<path d="M0 38.6143H140.088" stroke="white" stroke-width="0.25" stroke-miterlimit="10"/>
<path d="M140.088 72.7741H0" stroke="white" stroke-width="0.25" stroke-miterlimit="10"/>
<path d="M14.4023 23.5025C18.4229 23.5025 21.6823 20.2431 21.6823 16.2224C21.6823 12.2018 18.4229 8.94244 14.4023 8.94244C10.3817 8.94244 7.12234 12.2018 7.12234 16.2224C7.12234 20.2431 10.3817 23.5025 14.4023 23.5025Z" stroke="#FFE458" stroke-width="4.75"/>
<path d="M67.9536 88.8986C68.6011 89.1611 68.8986 89.8961 68.6361 90.5436L65.6961 97.6311C65.4336 98.2786 64.6986 98.5761 64.0511 98.3136C63.4036 98.0511 63.1061 97.3161 63.3686 96.6686L66.3086 89.5811C66.5711 88.9336 67.3061 88.6361 67.9536 88.8986Z" fill="#4382FF"/>
<path d="M70.701 95.5486C70.456 96.1436 69.7735 96.4236 69.1785 96.1786L61.916 93.1686C61.321 92.9236 61.041 92.2411 61.286 91.6461C61.531 91.0511 62.2135 90.7711 62.8085 91.0161L70.071 94.0261C70.666 94.2886 70.946 94.9711 70.701 95.5486Z" fill="#4382FF"/>
<path d="M14.2708 14.525H124.468C126.131 14.525 127.478 15.8725 127.478 17.535V81.34C127.478 83.0025 126.131 84.35 124.468 84.35H14.2708C12.6083 84.35 11.2608 83.0025 11.2608 81.34V17.535C11.2608 15.8725 12.6083 14.525 14.2708 14.525Z" fill="#4382FF"/>
<path d="M29.7679 18.795V82.635" stroke="black" stroke-width="0.25"/>
<path d="M33.8977 21.8925H120.453C121.87 21.8925 123.008 23.0475 123.008 24.4475C123.008 25.865 121.853 27.0025 120.453 27.0025H33.8977C32.4802 27.0025 31.3427 25.8475 31.3427 24.4475C31.3252 23.03 32.4802 21.8925 33.8977 21.8925Z" fill="#8FE4FF"/>
<path d="M35.6477 57.1326C35.6477 54.6424 37.6777 52.6398 40.1627 52.6398H114.17C116.673 52.6398 118.685 54.6599 118.685 57.1326V84.35H35.6477V57.1326Z" fill="#8FE4FF"/>
<path d="M21.7878 17.99H16.4678V18.3706H21.7878V17.99Z" fill="#8FE4FF"/>
<path d="M21.7878 19.0797H16.4678V19.4603H21.7878V19.0797Z" fill="#8FE4FF"/>
<path d="M21.7878 20.1693H16.4678V20.5499H21.7878V20.1693Z" fill="#8FE4FF"/>
<path d="M27.6502 38.0098H16.5026V38.3773H27.6502V38.0098Z" fill="#B3CAF8"/>
<path d="M27.6502 38.9373H16.5026V39.3048H27.6502V38.9373Z" fill="#B3CAF8"/>
<path d="M27.6502 39.8648H16.5026V40.2323H27.6502V39.8648Z" fill="#B3CAF8"/>
<path d="M27.6502 42.455H16.5026V42.8225H27.6502V42.455Z" fill="#B3CAF8"/>
<path d="M27.6502 43.3823H16.5026V43.7498H27.6502V43.3823Z" fill="#B3CAF8"/>
<path d="M27.6502 44.3098H16.5026V44.6773H27.6502V44.3098Z" fill="#B3CAF8"/>
<path d="M27.6502 46.8998H16.5026V47.2673H27.6502V46.8998Z" fill="#B3CAF8"/>
<path d="M27.6502 47.8273H16.5026V48.1948H27.6502V47.8273Z" fill="#B3CAF8"/>
<path d="M27.6502 48.755H16.5026V49.1225H27.6502V48.755Z" fill="#B3CAF8"/>
<path d="M27.6502 51.3448H16.5026V51.7123H27.6502V51.3448Z" fill="#B3CAF8"/>
<path d="M27.6502 52.2723H16.5026V52.6398H27.6502V52.2723Z" fill="#B3CAF8"/>
<path d="M27.6502 53.1998H16.5026V53.5673H27.6502V53.1998Z" fill="#B3CAF8"/>
<path d="M27.6502 55.7898H16.5026V56.1573H27.6502V55.7898Z" fill="#B3CAF8"/>
<path d="M27.6502 56.7175H16.5026V57.085H27.6502V56.7175Z" fill="#B3CAF8"/>
<path d="M27.6502 57.6448H16.5026V58.0123H27.6502V57.6448Z" fill="#B3CAF8"/>
<path d="M27.6502 60.2348H16.5026V60.6023H27.6502V60.2348Z" fill="#B3CAF8"/>
<path d="M27.6502 61.1623H16.5026V61.5298H27.6502V61.1623Z" fill="#B3CAF8"/>
<path d="M27.6502 62.0898H16.5026V62.4573H27.6502V62.0898Z" fill="#B3CAF8"/>
<path d="M27.6502 64.68H16.5026V65.0475H27.6502V64.68Z" fill="#B3CAF8"/>
<path d="M27.6502 65.6073H16.5026V65.9748H27.6502V65.6073Z" fill="#B3CAF8"/>
<path d="M27.6502 66.5348H16.5026V66.9023H27.6502V66.5348Z" fill="#B3CAF8"/>
<path d="M27.9653 68.6348H16.5553V79.9923H27.9653V68.6348Z" fill="#B3CAF8"/>
<path d="M27.9653 24.4473H16.5553V35.8048H27.9653V24.4473Z" fill="#B3CAF8"/>
<path d="M123.9 18.0425L122.325 19.6175" stroke="#78D2EE" stroke-width="0.2691" stroke-linecap="round"/>
<path d="M122.325 18.0425L123.9 19.6175" stroke="#78D2EE" stroke-width="0.2691" stroke-linecap="round"/>
<path d="M119.315 17.99H117.495V19.635H119.315V17.99Z" stroke="#78D2EE" stroke-width="0.2691" stroke-linecap="round"/>
<path d="M112.595 18.795H114.485" stroke="#78D2EE" stroke-width="0.2691" stroke-linecap="round"/>
<path d="M32.0075 27.02H122.325" stroke="#78D2EE" stroke-width="0.25"/>
<path d="M52.6225 34.895H64.05C64.435 34.895 64.75 35.21 64.75 35.595V47.04C64.75 47.425 64.435 47.74 64.05 47.74H52.605C52.22 47.74 51.905 47.425 51.905 47.04V35.595C51.9225 35.21 52.2375 34.895 52.6225 34.895Z" fill="#192439"/>
<path d="M59.3423 48.44H51.9223V49.455H59.3423V48.44Z" fill="#192439"/>
<path d="M58.345 43.5225C59.9203 43.5225 61.1975 42.2454 61.1975 40.67C61.1975 39.0945 59.9203 37.8175 58.345 37.8175C56.7695 37.8175 55.4925 39.0945 55.4925 40.67C55.4925 42.2454 56.7695 43.5225 58.345 43.5225Z" fill="#B3CAF8"/>
<path fill-rule="evenodd" clip-rule="evenodd" d="M63.455 47.74H53.2C53.095 47.4425 53.0425 47.1275 53.0425 46.8125C53.0425 44.695 55.405 42.98 58.3275 42.98C61.25 42.98 63.6125 44.695 63.6125 46.8125C63.6125 47.1275 63.56 47.4425 63.455 47.74Z" fill="#B3CAF8"/>
<path d="M34.5973 34.895H46.0423C46.4273 34.895 46.7423 35.21 46.7423 35.595V47.04C46.7423 47.425 46.4273 47.74 46.0423 47.74H34.5973C34.2123 47.74 33.8973 47.425 33.8973 47.04V35.595C33.8973 35.21 34.2123 34.895 34.5973 34.895Z" fill="#192439"/>
<path d="M41.3173 48.44H33.8973V49.455H41.3173V48.44Z" fill="#192439"/>
<path d="M43.1244 41.1276C43.3769 39.5726 42.3208 38.1073 40.7657 37.8549C39.2107 37.6024 37.7454 38.6585 37.493 40.2136C37.2407 41.7686 38.2966 43.2339 39.8517 43.4863C41.4069 43.7386 42.872 42.6827 43.1244 41.1276Z" fill="#B3CAF8"/>
<path fill-rule="evenodd" clip-rule="evenodd" d="M45.43 47.74H35.175C35.07 47.4425 35.0175 47.1275 35.0175 46.8125C35.0175 44.695 37.38 42.98 40.3025 42.98C43.225 42.98 45.5875 44.695 45.5875 46.8125C45.5875 47.1275 45.535 47.4425 45.43 47.74Z" fill="#B3CAF8"/>
<path d="M70.63 34.895H82.075C82.46 34.895 82.775 35.21 82.775 35.595V47.04C82.775 47.425 82.46 47.74 82.075 47.74H70.63C70.245 47.74 69.93 47.425 69.93 47.04V35.595C69.9475 35.21 70.245 34.895 70.63 34.895Z" fill="#192439"/>
<path d="M77.3673 48.44H69.9473V49.455H77.3673V48.44Z" fill="#192439"/>
<path d="M76.3525 43.5225C77.9278 43.5225 79.205 42.2454 79.205 40.67C79.205 39.0945 77.9278 37.8175 76.3525 37.8175C74.7771 37.8175 73.5 39.0945 73.5 40.67C73.5 42.2454 74.7771 43.5225 76.3525 43.5225Z" fill="#B3CAF8"/>
<path fill-rule="evenodd" clip-rule="evenodd" d="M81.48 47.74H71.225C71.12 47.4425 71.0675 47.1275 71.0675 46.8125C71.0675 44.695 73.43 42.98 76.3525 42.98C79.275 42.98 81.6375 44.695 81.6375 46.8125C81.6375 47.1275 81.585 47.4425 81.48 47.74Z" fill="#B3CAF8"/>
<path d="M88.7425 34.895H100.188C100.573 34.895 100.888 35.21 100.888 35.595V47.04C100.888 47.425 100.573 47.74 100.188 47.74H88.7425C88.3575 47.74 88.0425 47.425 88.0425 47.04V35.595C88.0425 35.21 88.3575 34.895 88.7425 34.895Z" fill="#192439"/>
<path d="M95.4625 48.44H88.0425V49.455H95.4625V48.44Z" fill="#192439"/>
<path d="M94.465 43.5225C96.0403 43.5225 97.3175 42.2454 97.3175 40.67C97.3175 39.0945 96.0403 37.8175 94.465 37.8175C92.8896 37.8175 91.6125 39.0945 91.6125 40.67C91.6125 42.2454 92.8896 43.5225 94.465 43.5225Z" fill="#B3CAF8"/>
<path fill-rule="evenodd" clip-rule="evenodd" d="M99.5925 47.74H89.3375C89.2325 47.4425 89.18 47.1275 89.18 46.8125C89.18 44.695 91.5425 42.98 94.465 42.98C97.3875 42.98 99.75 44.695 99.75 46.8125C99.75 47.1275 99.68 47.4425 99.5925 47.74Z" fill="#B3CAF8"/>
<path d="M106.68 34.895H118.125C118.51 34.895 118.825 35.21 118.825 35.595V47.04C118.825 47.425 118.51 47.74 118.125 47.74H106.68C106.295 47.74 105.98 47.425 105.98 47.04V35.595C105.98 35.21 106.295 34.895 106.68 34.895Z" fill="#192439"/>
<path d="M113.4 48.44H105.98V49.455H113.4V48.44Z" fill="#192439"/>
<path d="M112.402 43.5225C113.978 43.5225 115.255 42.2454 115.255 40.67C115.255 39.0945 113.978 37.8175 112.402 37.8175C110.827 37.8175 109.55 39.0945 109.55 40.67C109.55 42.2454 110.827 43.5225 112.402 43.5225Z" fill="#B3CAF8"/>
<path fill-rule="evenodd" clip-rule="evenodd" d="M117.53 47.74H107.275C107.17 47.4425 107.117 47.1275 107.117 46.8125C107.117 44.695 109.48 42.98 112.402 42.98C115.325 42.98 117.687 44.695 117.687 46.8125C117.687 47.1275 117.635 47.4425 117.53 47.74Z" fill="#B3CAF8"/>
<path d="M99.7848 46.06H101.972C102.27 46.06 102.497 46.2875 102.497 46.585V48.9125C102.497 49.21 102.27 49.4375 101.972 49.4375H99.7848C99.4873 49.4375 99.2598 49.21 99.2598 48.9125V46.585C99.2598 46.305 99.5048 46.06 99.7848 46.06Z" fill="white" fill-opacity="0.6"/>
<path d="M100.712 47.2325C100.712 47.145 100.782 47.0575 100.887 47.0575C100.975 47.0575 101.062 47.1275 101.062 47.2325V48.2825C101.062 48.37 100.992 48.4575 100.887 48.4575C100.8 48.4575 100.712 48.3875 100.712 48.2825V47.2325Z" fill="#1B2226"/>
<path d="M101.412 47.6C101.5 47.6 101.57 47.67 101.57 47.7575C101.57 47.845 101.5 47.915 101.412 47.915H100.327C100.24 47.915 100.17 47.845 100.17 47.7575C100.17 47.67 100.24 47.6 100.327 47.6H101.412Z" fill="#1B2226"/>
<path d="M117.74 46.06H119.927C120.225 46.06 120.452 46.2875 120.452 46.585V48.9125C120.452 49.21 120.225 49.4375 119.927 49.4375H117.74C117.442 49.4375 117.215 49.21 117.215 48.9125V46.585C117.215 46.305 117.442 46.06 117.74 46.06Z" fill="white" fill-opacity="0.6"/>
<path d="M118.65 47.2325C118.65 47.145 118.72 47.0575 118.825 47.0575C118.912 47.0575 119 47.1275 119 47.2325V48.2825C119 48.37 118.93 48.4575 118.825 48.4575C118.737 48.4575 118.65 48.3875 118.65 48.2825V47.2325Z" fill="#1B2226"/>
<path d="M119.367 47.6C119.455 47.6 119.525 47.67 119.525 47.7575C119.525 47.845 119.455 47.915 119.367 47.915H118.283C118.195 47.915 118.125 47.845 118.125 47.7575C118.125 47.67 118.195 47.6 118.283 47.6H119.367Z" fill="#1B2226"/>
<path d="M63.6648 46.06H65.8523C66.1498 46.06 66.3773 46.2875 66.3773 46.585V48.9125C66.3773 49.21 66.1498 49.4375 65.8523 49.4375H63.6648C63.3673 49.4375 63.1398 49.21 63.1398 48.9125V46.585C63.1398 46.305 63.3673 46.06 63.6648 46.06Z" fill="white" fill-opacity="0.6"/>
<path d="M64.575 47.2325C64.575 47.145 64.645 47.0575 64.75 47.0575C64.8375 47.0575 64.925 47.1275 64.925 47.2325V48.2825C64.925 48.37 64.855 48.4575 64.75 48.4575C64.6625 48.4575 64.575 48.3875 64.575 48.2825V47.2325Z" fill="#1B2226"/>
<path d="M65.2925 47.6C65.38 47.6 65.45 47.67 65.45 47.7575C65.45 47.845 65.38 47.915 65.2925 47.915H64.2075C64.12 47.915 64.05 47.845 64.05 47.7575C64.05 47.67 64.12 47.6 64.2075 47.6H65.2925Z" fill="#1B2226"/>
<path d="M45.6398 46.06H47.8273C48.1248 46.06 48.3523 46.2875 48.3523 46.585V48.9125C48.3523 49.21 48.1248 49.4375 47.8273 49.4375H45.6398C45.3423 49.4375 45.1148 49.21 45.1148 48.9125V46.585C45.1148 46.305 45.3598 46.06 45.6398 46.06Z" fill="white" fill-opacity="0.6"/>
<path d="M46.5675 47.2325C46.5675 47.145 46.6375 47.0575 46.7425 47.0575C46.83 47.0575 46.9175 47.1275 46.9175 47.2325V48.2825C46.9175 48.37 46.8475 48.4575 46.7425 48.4575C46.655 48.4575 46.5675 48.3875 46.5675 48.2825V47.2325Z" fill="#1B2226"/>
<path d="M47.2675 47.6C47.355 47.6 47.425 47.67 47.425 47.7575C47.425 47.845 47.355 47.915 47.2675 47.915H46.2C46.1125 47.915 46.0425 47.845 46.0425 47.7575C46.0425 47.67 46.1125 47.6 46.2 47.6H47.2675Z" fill="#1B2226"/>
<path d="M81.6898 46.06H83.8773C84.1748 46.06 84.4023 46.2875 84.4023 46.585V48.9125C84.4023 49.21 84.1748 49.4375 83.8773 49.4375H81.6898C81.3923 49.4375 81.1648 49.21 81.1648 48.9125V46.585C81.1648 46.305 81.3923 46.06 81.6898 46.06Z" fill="white" fill-opacity="0.6"/>
<path d="M82.6 47.2325C82.6 47.145 82.67 47.0575 82.775 47.0575C82.8625 47.0575 82.95 47.1275 82.95 47.2325V48.2825C82.95 48.37 82.88 48.4575 82.775 48.4575C82.6875 48.4575 82.6 48.3875 82.6 48.2825V47.2325Z" fill="#1B2226"/>
<path d="M83.3175 47.6C83.405 47.6 83.475 47.67 83.475 47.7575C83.475 47.845 83.405 47.915 83.3175 47.915H82.2325C82.145 47.915 82.075 47.845 82.075 47.7575C82.075 47.67 82.145 47.6 82.2325 47.6H83.3175Z" fill="#1B2226"/>
<path d="M61.32 58.555H42.42V71.33H61.32V58.555Z" fill="#205284"/>
<path d="M86.1352 58.555H67.2352V71.33H86.1352V58.555Z" fill="#205284"/>
<path d="M110.932 58.555H92.0325V71.33H110.932V58.555Z" fill="#205284"/>
<path d="M61.32 73.1325H42.42V74.5675H61.32V73.1325Z" fill="#4382FF"/>
<path d="M86.1352 73.1325H67.2352V74.5675H86.1352V73.1325Z" fill="#4382FF"/>
<path d="M110.932 73.1325H92.0325V74.5675H110.932V73.1325Z" fill="#4382FF"/>
<path d="M61.32 75.285H42.42V76.72H61.32V75.285Z" fill="#4382FF"/>
<path d="M86.1352 75.285H67.2352V76.72H86.1352V75.285Z" fill="#4382FF"/>
<path d="M110.932 75.285H92.0325V76.72H110.932V75.285Z" fill="#4382FF"/>
<path d="M61.32 80.6225H42.42V84.2275H61.32V80.6225Z" fill="#4382FF"/>
<path d="M86.1352 80.6225H67.2352V84.2275H86.1352V80.6225Z" fill="#4382FF"/>
<path d="M110.932 80.6225H92.0325V84.2275H110.932V80.6225Z" fill="#4382FF"/>
<path d="M40.4075 78.61H113.925" stroke="#121A2A" stroke-width="0.25"/>
<path d="M51.8702 67.515C53.291 67.515 54.4427 66.3633 54.4427 64.9425C54.4427 63.5218 53.291 62.37 51.8702 62.37C50.4495 62.37 49.2977 63.5218 49.2977 64.9425C49.2977 66.3633 50.4495 67.515 51.8702 67.515Z" stroke="#283959" stroke-opacity="0.5" stroke-width="1.6813"/>
<path d="M53.1127 64.8375C53.2002 64.89 53.2002 65.0125 53.1127 65.0475L51.3452 66.0625C51.2577 66.115 51.1527 66.045 51.1527 65.9575V63.9275C51.1527 63.84 51.2577 63.77 51.3452 63.8225L53.1127 64.8375Z" fill="#B3CAF8"/>
<path d="M101.483 67.5325C102.903 67.5325 104.055 66.3808 104.055 64.96C104.055 63.5392 102.903 62.3875 101.483 62.3875C100.062 62.3875 98.9102 63.5392 98.9102 64.96C98.9102 66.3808 100.062 67.5325 101.483 67.5325Z" stroke="#283959" stroke-opacity="0.5" stroke-width="1.6813"/>
<path d="M102.725 64.8375C102.813 64.89 102.813 65.0125 102.725 65.0475L100.958 66.0625C100.87 66.115 100.765 66.045 100.765 65.9575V63.9275C100.765 63.84 100.87 63.77 100.958 63.8225L102.725 64.8375Z" fill="#B3CAF8"/>
<path d="M76.685 67.515C78.1058 67.515 79.2575 66.3633 79.2575 64.9425C79.2575 63.5218 78.1058 62.37 76.685 62.37C75.2642 62.37 74.1125 63.5218 74.1125 64.9425C74.1125 66.3633 75.2642 67.515 76.685 67.515Z" stroke="#283959" stroke-opacity="0.5" stroke-width="1.6813"/>
<path d="M77.9278 64.8375C78.0153 64.89 78.0153 65.0125 77.9278 65.0475L76.1603 66.0625C76.0728 66.115 75.9678 66.045 75.9678 65.9575V63.9275C75.9678 63.84 76.0728 63.77 76.1603 63.8225L77.9278 64.8375Z" fill="#B3CAF8"/>
<path d="M31.2727 84.245H123.043" stroke="black" stroke-opacity="0.53" stroke-miterlimit="10" stroke-linecap="round"/>
<path d="M102.103 29.5362H87.1801V30.9925H102.103V29.5362Z" fill="#B3CAF8"/>
<path d="M119.569 29.5362H104.646V30.9925H119.569V29.5362Z" fill="#B3CAF8"/>
<path d="M49.7039 29.5362H34.7812V30.9925H49.7039V29.5362Z" fill="#B3CAF8"/>
<path d="M67.1701 29.5362H52.2475V30.9925H67.1701V29.5362Z" fill="#B3CAF8"/>
<path d="M84.6361 29.5362H69.7135V30.9925H84.6361V29.5362Z" fill="#B3CAF8"/>
<path opacity="0.89" d="M91.9851 7.05909L99.2996 10.7261C100.08 11.1162 100.392 12.0525 100.002 12.8132L96.3349 20.1276C95.9446 20.908 95.0084 21.22 94.2477 20.8299L86.9332 17.1629C86.153 16.7728 85.841 15.8365 86.2311 15.0758L89.898 7.76129C90.2881 6.98107 91.2244 6.66898 91.9851 7.05909Z" fill="#151515" fill-opacity="0.2"/>
<path d="M91.2625 5.00505L97.825 8.29505C98.525 8.64505 98.805 9.48505 98.455 10.1675L95.165 16.73C94.815 17.43 93.975 17.71 93.2925 17.36L86.73 14.07C86.03 13.72 85.75 12.88 86.1 12.1975L89.39 5.63505C89.74 4.93505 90.58 4.65505 91.2625 5.00505Z" fill="#B3CAF8"/>
<path d="M117.574 39.1475C116.332 45.8675 114.862 49.4025 111.957 51.1525C111.904 51.1875 111.869 51.205 111.817 51.24C111.624 51.345 111.432 51.45 111.222 51.555C109.507 52.36 107.337 52.675 104.519 52.7275C104.204 52.7275 103.907 52.7275 103.574 52.7275C101.789 52.7275 99.9694 52.4475 98.1844 51.9575C94.5094 50.925 91.0444 48.9475 88.5244 46.5325C88.4544 46.48 88.4019 46.41 88.3319 46.3575C88.2794 46.305 88.2444 46.27 88.1919 46.2175C88.1394 46.1825 88.1044 46.13 88.0694 46.095C88.0519 46.0775 88.0519 46.0775 88.0344 46.06C87.9644 45.99 87.8944 45.92 87.8244 45.8325C87.7019 45.71 87.5794 45.57 87.4744 45.4475C87.1069 45.0275 86.7744 44.6075 86.4769 44.1875C86.0744 43.6275 85.7244 43.05 85.4444 42.455C85.1469 41.8425 84.9019 41.23 84.7444 40.6C84.5694 39.9525 84.4819 39.3225 84.4819 38.675C84.4819 38.2375 84.5169 37.8175 84.5694 37.38C84.8319 35.5075 85.6194 33.6875 86.8444 32.0775C88.5244 29.855 90.9919 28.035 93.9319 26.985C96.1019 26.215 98.5169 26.355 101.089 26.355C110.277 26.3375 117.574 32.34 117.574 39.1475Z" fill="#543E36"/>
<path d="M83.2743 59.0975C82.6443 54.11 84.2018 47.005 83.6943 40.88C83.6418 40.215 84.1143 39.62 84.2018 39.0075C84.3593 38.0275 84.5868 37.485 84.7443 36.6975L105.289 42.0525C105.132 47.04 103.599 59.1215 102.234 60.189C101.184 61.0115 90.3268 64.365 85.7418 64.365C84.7268 64.365 82.5043 63.3325 82.6268 61.7925C82.6618 61.425 82.7843 61.0925 82.9593 60.795C83.2393 60.27 83.3618 59.675 83.2743 59.0975Z" fill="#543E36"/>
<path d="M113.374 69.58C110.452 66.85 111.134 53.9875 112.342 47.915H100.179L93.2668 62.0025C93.2668 62.0025 93.1968 63.525 93.2668 65.1525C93.3368 67.1125 94.4218 68.81 94.2293 70.4025C93.9668 72.6775 94.0368 75.4425 93.6168 75.9675L113.374 69.58Z" fill="#543E36"/>
<path d="M79.9523 49.105C79.9523 49.105 81.7373 47.4075 82.5773 46.095C83.7323 44.275 84.2301 43.338 84.2301 43.338L85.697 54.0703L81.3173 52.395C79.7948 52.115 79.0773 50.365 79.9523 49.105Z" fill="#543E36"/>
<path d="M85.0591 56.98C84.6741 56.91 84.1316 56.8225 83.5716 56.7C83.1166 56.595 82.6616 56.49 82.2766 56.385C82.2416 56.3675 82.2241 56.3675 82.1891 56.35C82.1541 56.3325 82.1191 56.3325 82.0666 56.315C81.7866 56.2275 81.5766 56.1225 81.4366 56.035C80.6491 55.5975 81.2441 54.0925 81.5416 54.04C81.8916 54.0575 82.1016 53.2875 82.0141 52.8325C81.9616 52.5875 82.1716 52.43 82.1716 52.43L83.7291 53.1825L83.8691 53.2525L84.8666 53.7425L85.0066 56L85.0591 56.98Z" fill="#543E36"/>
<path d="M85.4268 55.895L82.6793 61.5475C82.7318 60.97 82.8193 60.34 82.7493 60.13C82.6268 59.815 82.5393 59.3775 81.9793 59.0275C81.1918 58.5375 80.4918 57.855 81.4543 56.5425C81.5068 56.4725 81.5768 56.4375 81.6818 56.385C81.6993 56.385 81.7343 56.3675 81.7518 56.35C81.7518 56.35 81.7693 56.35 81.7868 56.3325C82.1193 56.21 82.6093 56.1225 83.1518 56.07C83.2393 56.07 83.3093 56.0525 83.3968 56.0525C83.7993 56.0175 84.2018 56 84.5693 55.965C84.8843 55.965 85.1818 55.93 85.4268 55.895Z" fill="#543E36"/>
<path fill-rule="evenodd" clip-rule="evenodd" d="M117.574 39.1475C116.332 45.8675 114.862 49.4025 111.957 51.1525C111.904 51.1875 111.869 51.205 111.817 51.24C111.817 51.2925 111.799 51.345 111.799 51.3975C111.782 51.52 111.764 51.625 111.764 51.7475L111.222 51.555L105.482 51.7475C105.622 51.1175 106.829 45.0975 102.472 44.31C98.1844 43.54 97.7293 48.93 97.7293 48.93L94.5094 47.6C94.5094 47.6 94.9994 42.7 91.7619 41.6675L92.8644 38.7975L93.9494 35.9625L86.8619 32.06C88.5419 29.8375 91.0094 28.0175 93.9494 26.9675C96.1194 26.1975 98.5343 26.3375 101.107 26.3375C110.277 26.3375 117.574 32.34 117.574 39.1475Z" fill="#192439"/>
<path d="M111.778 63.994L93.9102 68.1448L93.7825 67.7238C93.7825 67.7238 109.225 63.5191 111.398 62.6043C111.438 63.7791 111.778 63.994 111.778 63.994Z" fill="#090E17" fill-opacity="0.2"/>
<path d="M124.277 82.95C123.437 80.43 116.804 72.9575 113.427 69.335C106.304 71.435 92.4268 74.13 92.4268 74.13C85.1993 83.3 83.8343 88.795 80.5793 105.035H125.204C125.222 105.035 125.117 85.47 124.277 82.95Z" fill="#4382FF"/>
<path d="M124.277 82.95C123.437 80.43 116.804 72.9575 113.427 69.335C106.304 71.435 92.4268 74.13 92.4268 74.13C85.1993 83.3 83.8343 88.795 80.5793 105.035H125.204C125.222 105.035 125.117 85.47 124.277 82.95Z" fill="black" fill-opacity="0.42"/>
<path d="M91.7966 69.4925C91.9016 68.845 92.3741 68.3025 93.0216 68.145L112.237 63.0875C112.744 62.93 113.234 63.35 113.182 63.875C113.112 64.645 113.042 65.66 113.164 66.465C113.374 67.935 114.634 69.2825 114.442 70.315C114.249 71.3475 90.8516 76.195 90.8516 76.195L91.7966 69.4925Z" fill="#4382FF"/>
<path d="M91.7966 69.4925C91.9016 68.845 92.3741 68.3025 93.0216 68.145L112.237 63.0875C112.744 62.93 113.234 63.35 113.182 63.875C113.112 64.645 113.042 65.66 113.164 66.465C113.374 67.935 114.634 69.2825 114.442 70.315C114.249 71.3475 90.8516 76.195 90.8516 76.195L91.7966 69.4925Z" fill="black" fill-opacity="0.42"/>
<path d="M108.338 63.3293L112.44 62.4258C113.022 62.2452 113.584 62.727 113.524 63.3293C113.444 64.2126 113.363 65.377 113.504 66.3005C113.745 67.987 115.19 69.5327 114.969 70.7171C114.92 70.98 111.424 70.7171 96.5522 74.3087" stroke="#78D2EE" stroke-width="0.25" stroke-linecap="round"/>
<path d="M84.6044 42.1225C84.6044 42.1225 84.2019 40.3375 85.1294 40.5125C86.0569 40.6875 88.4019 40.88 89.3294 41.6675C90.2569 42.455 90.3269 43.505 90.3269 43.505C90.3269 43.505 89.0669 43.2075 88.2794 42.7525C87.3694 42.245 84.7094 42.7175 84.6044 42.1225Z" fill="#2A2A2A" fill-opacity="0.5"/>
<path d="M93.5807 67.9898C93.2346 67.9898 92.2213 68.2365 91.9307 69.2232C91.6398 70.2098 91.2382 73.9802 91.0739 75.7421" stroke="white" stroke-width="0.25" stroke-linecap="round"/>
<path d="M83.0146 49.8052C82.9796 49.9627 83.8721 50.2427 84.2746 50.5402C85.0096 51.0827 85.2371 52.0102 83.2596 52.8502C83.2596 52.8502 84.5721 52.6402 85.0271 52.0627C85.4821 51.4852 85.1321 49.9452 83.0146 49.8052Z" fill="#493630"/>
<path opacity="0.5" d="M85.8645 45.185C84.1145 46.165 86.3895 50.3825 86.3895 50.3825C86.3895 50.3825 86.3195 48.7025 86.127 47.46C86.0395 46.97 85.812 46.305 85.8645 45.185Z" fill="#44322D"/>
<path d="M86.9319 43.995C86.4594 43.785 85.8819 44.7125 85.8819 44.7125C85.8819 44.7125 86.3544 46.1475 86.3719 46.4625C86.3894 46.9 85.6194 47.32 85.6194 47.32C85.6194 47.32 85.7419 47.4775 85.8819 47.6525C86.1444 48.0025 86.6344 48.09 87.0019 47.845L89.0319 46.445C89.0319 46.445 89.0144 45.4825 88.4019 44.8175C88.2619 44.6775 87.2994 44.17 86.9319 43.995Z" fill="#493630"/>
<path d="M87.9821 46.3925C87.3521 45.955 85.8471 44.765 85.8471 44.765C85.8471 44.765 86.4071 45.605 86.4246 46.13C86.4421 46.83 85.8646 47.4775 85.8646 47.4775C85.8646 47.4775 87.7721 46.4975 87.9821 46.3925Z" fill="#FFF5EA"/>
<path d="M86.9144 46.4275C87.0369 45.955 86.6344 45.1325 86.3194 44.7475C85.5494 45.78 85.5319 46.3575 85.8469 47.5125C86.1969 47.2675 86.7744 46.9 86.9144 46.4275Z" fill="#30281D"/>
<path d="M86.0571 45.22C86.4421 45.8675 86.4071 46.62 85.7421 46.935C85.6196 46.6725 85.5321 45.955 86.0571 45.22Z" fill="#282218"/>
<path d="M86.3543 44.24C86.1093 44.415 85.6543 44.7825 85.6543 45.1675L87.9818 46.375L88.0518 46.0075L86.3543 44.24Z" fill="#493630"/>
<path d="M85.7594 47.5825C85.7594 47.5825 85.4619 47.1275 85.5494 47.145C85.6369 47.1625 87.9819 46.3925 87.9819 46.3925L88.2619 46.6025L85.7594 47.5825Z" fill="#493630"/>
<path d="M85.4621 47.0925C85.5671 46.8825 86.7221 46.585 87.5971 46.375C86.9146 46.1475 85.7246 45.395 85.5496 45.15C85.3396 44.835 85.4271 44.3275 85.4446 44.3275C85.5496 44.3275 85.5321 44.765 85.7246 45.045C85.8471 45.22 87.1071 46.0075 88.0171 46.305L88.3671 46.4275L87.9996 46.515C86.9321 46.76 85.7421 47.075 85.6371 47.215C85.5496 47.3725 85.5146 47.5125 85.5321 47.5125C85.5671 47.53 85.3046 47.3725 85.4621 47.0925Z" fill="#282218"/>
<path d="M89.207 46.48C89.207 46.48 87.2295 46.7075 86.9845 47.04C86.7395 47.3725 86.582 48.1075 86.582 48.1075L87.7195 48.3875L89.207 46.48Z" fill="#543E36"/>
<path opacity="0.7" d="M102.475 43.2848C100.264 43.2154 85.5449 43.9707 85.5449 43.9707V46.6373L102.268 44.9389C103.259 45.1124 105.31 46.4047 106.266 47.0347C106.546 47.219 106.925 47.1392 107.101 46.8545C107.447 46.2976 107.329 45.5728 106.794 45.1939C105.73 44.4393 103.929 43.3307 102.475 43.2848Z" fill="#B3CAF8"/>
<path d="M102.587 47.7759C102.097 46.4984 100.452 46.9884 99.5419 47.5134L99.4019 49.1584C99.0344 48.7734 98.7894 47.0759 99.1044 46.2184L100.872 44.8359L103.059 45.0284C103.532 45.6759 105.107 47.0409 104.337 49.0009C103.934 50.0509 102.184 51.8009 100.854 52.4309C101.659 51.4159 103.094 49.0534 102.587 47.7759Z" fill="#3F2E2A"/>
<path d="M102.237 47.7234C101.589 46.8309 100.382 46.6384 99.5594 47.0584L99.7169 50.0159L98.5794 51.2584L99.9794 53.0084L101.257 52.6234L103.129 50.5234C103.287 49.7009 102.884 48.6159 102.237 47.7234Z" fill="#3F2E2A"/>
<path d="M99.6471 49.3159C99.6471 49.3159 100.242 48.5634 100.802 48.4584C102.08 48.1959 102.675 50.8909 103.672 50.0684C105.177 48.8259 103.795 46.3234 101.327 46.1134C98.4921 45.8684 99.6471 49.3159 99.6471 49.3159Z" fill="#493630"/>
<path d="M98.5796 47.5484L99.9096 50.6634C100.312 49.3859 99.2446 46.7609 99.7521 45.3084C98.1771 46.2359 98.5796 47.5484 98.5796 47.5484Z" fill="#493630"/>
<path d="M104.355 46.1834C103.06 44.0659 101.975 43.9434 100.487 44.5734C99.4196 45.0284 98.7721 46.1309 98.6671 47.2859L98.6321 47.6884C100.242 45.1684 102.64 44.1709 103.672 46.1134C105.212 48.9834 103.497 50.5584 102.062 50.9959C100.82 51.3809 99.9796 50.0334 99.1746 48.4409C97.8271 50.4884 97.6696 52.1684 99.4896 53.2884C100.575 53.9534 101.677 52.8859 102.745 51.9409C104.39 50.4534 105.667 48.3184 104.355 46.1834Z" fill="#493630"/>
<path d="M102.316 51.0893C102.712 50.7341 102.619 49.9856 102.108 49.4177C101.598 48.8498 100.864 48.6775 100.468 49.0327C100.073 49.388 100.166 50.1364 100.676 50.7043C101.187 51.2724 101.921 51.4446 102.316 51.0893Z" fill="white"/>
<path d="M101.344 49.9634C101.502 50.1384 101.484 50.3834 101.309 50.5409L98.1419 53.3759C97.9669 53.5334 97.7219 53.5159 97.5644 53.3409C97.4069 53.1659 97.4244 52.9209 97.5994 52.7634L100.767 49.9284C100.924 49.7709 101.187 49.7884 101.344 49.9634Z" fill="white"/>
<path d="M101.502 49.2634L101.992 49.8234C102.08 49.9109 102.062 50.0509 101.975 50.1384C101.887 50.2259 101.747 50.2084 101.66 50.1209L101.17 49.5609C101.082 49.4734 101.1 49.3334 101.187 49.2459C101.292 49.1584 101.432 49.1759 101.502 49.2634Z" fill="#192439"/>
<path d="M100.382 50.2609C100.382 50.2609 100.015 50.0509 100.75 49.0884C100.96 48.8259 99.4371 46.6734 99.4371 46.6734C99.2621 46.8659 99.7171 48.7734 99.3321 49.4034C98.9471 50.0334 99.1046 50.6459 99.5596 50.9784L100.382 50.2609Z" fill="#493630"/>
<path d="M102.587 50.2259C102.324 50.4884 101.677 51.4509 100.819 51.0134C100.819 51.0134 101.397 51.7834 102.044 51.8184C103.339 51.8884 104.214 48.9134 104.214 48.9134C103.602 49.5084 102.849 49.9634 102.587 50.2259Z" fill="#493630"/>
<path d="M86.2958 45.9742C86.2958 48.8278 85.8503 51.1411 85.3008 51.1411C85.1223 51.1411 84.3698 51.1411 84.3698 51.1411C84.0686 50.2528 84.3057 47.9012 84.3057 45.9742C84.3057 44.5749 84.1318 41.7377 84.3057 40.8074C84.3057 40.8074 85.0206 40.8074 85.3008 40.8074C85.8503 40.8074 86.2958 43.1205 86.2958 45.9742Z" fill="#4382FF"/>
<path d="M84.4086 51.1413C84.9582 51.1413 85.4037 48.828 85.4037 45.9744C85.4037 43.1208 84.9582 40.8075 84.4086 40.8075C83.8591 40.8075 83.4135 43.1208 83.4135 45.9744C83.4135 48.828 83.8591 51.1413 84.4086 51.1413Z" fill="#FFE458"/>
<path d="M83.4328 44.0265C83.8224 44.0521 83.8409 43.8813 84.0392 44.1329C84.0392 44.9022 84.0161 46.3132 83.9232 45.8022C83.8303 45.2912 83.0127 45.0868 83.0127 45.0868C83.0127 45.0868 82.7696 43.9831 83.4328 44.0265Z" fill="#8FE4FF"/>
<path d="M84.6918 56.5425C84.4818 56.525 84.0618 56.4725 83.5718 56.4375C83.1693 56.4025 81.7168 56.42 81.2968 56.14C80.3518 55.5275 81.0868 53.83 81.5243 54.04C81.5243 54.04 81.5243 54.04 81.5243 54.0225C81.5418 54.0225 81.5418 54.0225 81.5418 54.04C81.6643 54.5125 81.9793 55.125 82.6443 55.475C82.9418 55.6325 83.2568 55.79 83.5543 55.93C83.6418 55.965 83.7118 56.0175 83.7993 56.0525C84.1843 56.245 84.5168 56.4025 84.6918 56.49C84.7268 56.525 84.7268 56.5425 84.6918 56.5425Z" fill="#5B433B"/>
<path d="M83.8693 57.0675C84.0093 56.9625 84.6918 56.56 84.6918 56.56L81.7693 56.35C81.6293 56.4025 81.5243 56.4725 81.4543 56.5425C80.7193 57.3825 80.9643 58.1175 81.3843 58.5725C81.3843 58.555 83.2918 57.505 83.8693 57.0675Z" fill="#5B433B"/>
<path d="M96.8331 60.7455L89.2855 63.9802C90.4311 63.9802 96.4896 62.3392 97.4059 61.4532C97.8997 60.9754 98.4952 58.8812 98.7535 57.9152L96.8331 60.7455Z" fill="#192439"/>
<path opacity="0.4" fill-rule="evenodd" clip-rule="evenodd" d="M98.1724 54.2346C95.9555 60.5785 91.1258 72.4034 89.4278 72.6299C89.4278 72.6297 89.4276 72.6294 89.4276 72.6292C89.4131 72.6399 89.3984 72.6504 89.3837 72.6609C87.1483 74.2352 83.0135 72.2136 80.1484 68.1455C77.2833 64.0775 76.773 59.5033 79.0085 57.929C79.4078 57.6478 79.8677 57.4814 80.3702 57.4206C82.5375 56.6496 87.1532 55.0315 89.9231 54.2346C93.61 53.1736 97.1527 52.5308 97.1527 52.5308C97.1527 52.5308 97.7596 52.8027 97.9762 53.1387C98.2118 53.5041 98.1724 54.2346 98.1724 54.2346Z" fill="#B3CAF8"/>
<path d="M96.2792 54.8884C96.9327 55.9297 97.3088 57.0026 97.3914 57.8928C97.4745 58.7886 97.2601 59.4715 96.772 59.7779C96.284 60.0842 95.5757 59.9806 94.8052 59.5163C94.0392 59.0548 93.2363 58.25 92.5829 57.2087C91.9293 56.1677 91.5534 55.0947 91.4708 54.2043C91.3875 53.3085 91.602 52.6257 92.0901 52.3194C92.5782 52.013 93.2862 52.1166 94.0569 52.5809C94.8227 53.0423 95.6256 53.8473 96.2792 54.8884Z" stroke="#78D2EE" stroke-width="0.25"/>
<path d="M92.7461 58.666C93.9717 60.4244 94.7257 62.2585 94.9574 63.7999C95.19 65.3473 94.8934 66.5697 94.0614 67.1494C93.2293 67.7294 91.9798 67.5845 90.6087 66.8306C89.2428 66.0797 87.7831 64.7371 86.5576 62.9787C85.3323 61.2203 84.5782 59.3861 84.3465 57.8447C84.1139 56.2973 84.4105 55.075 85.2425 54.4952C86.0746 53.9152 87.3239 54.0601 88.6952 54.814C90.0609 55.565 91.5208 56.9076 92.7461 58.666Z" stroke="#78D2EE" stroke-width="0.25"/>
<path d="M88.8129 62.0436C90.465 64.3897 91.4358 66.8784 91.6727 69.0025C91.9102 71.1302 91.4106 72.8697 90.1542 73.7545C88.8979 74.6394 87.0916 74.5236 85.1683 73.5833C83.2482 72.6446 81.2322 70.8923 79.5799 68.5461C77.9275 66.2001 76.9568 63.7114 76.7198 61.5874C76.4824 59.4598 76.982 57.7201 78.2385 56.8353C79.4948 55.9505 81.301 56.0662 83.2242 57.0064C85.1443 57.9451 87.1605 59.6974 88.8129 62.0436Z" stroke="#78D2EE" stroke-width="0.25"/>
<path d="M97.9664 53.1867C98.1214 53.4335 98.2042 53.6879 98.2163 53.897C98.2287 54.1097 98.1683 54.2533 98.0668 54.3172C97.9652 54.3809 97.8094 54.3729 97.6234 54.2693C97.4403 54.1674 97.2471 53.9823 97.0923 53.7355C96.9374 53.4886 96.8544 53.2341 96.8424 53.0252C96.8299 52.8124 96.8903 52.6687 96.992 52.605C97.0935 52.5411 97.2492 52.5492 97.4353 52.6528C97.6183 52.7546 97.8115 52.9398 97.9664 53.1867Z" stroke="#78D2EE" stroke-width="0.25"/>
<path d="M123.017 90.8628C122.393 88.5222 121.208 83.5835 117.843 81.4117C112.239 77.7943 104.947 80.1143 101.35 83.0912C98.472 85.4728 98.5647 88.0848 97.5478 91.5593" stroke="#78D2EE" stroke-width="0.25" stroke-linecap="round"/>
<path opacity="0.89" fill-rule="evenodd" clip-rule="evenodd" d="M128.208 59.2884C126.128 59.2884 124.442 60.9744 124.442 63.0541C124.442 65.1338 126.128 66.8197 128.208 66.8197C130.288 66.8197 131.974 65.1338 131.974 63.0541C131.974 60.9744 130.288 59.2884 128.208 59.2884ZM120.767 63.0541C120.767 58.9447 124.099 55.6134 128.208 55.6134C132.317 55.6134 135.649 58.9447 135.649 63.0541C135.649 67.1634 132.317 70.4947 128.208 70.4947C124.099 70.4947 120.767 67.1634 120.767 63.0541Z" fill="#151515" fill-opacity="0.2"/>
<path d="M126.756 66.01C129.653 66.01 132.003 63.661 132.003 60.7631C132.003 57.8653 129.653 55.5161 126.756 55.5161C123.858 55.5161 121.509 57.8653 121.509 60.7631C121.509 63.661 123.858 66.01 126.756 66.01Z" stroke="#FFE458" stroke-width="5"/>
<path opacity="0.89" fill-rule="evenodd" clip-rule="evenodd" d="M21.6608 68.8971L18.7915 69.9806C16.4198 70.8881 15.2194 73.5527 16.127 75.9243L17.889 80.5681L13.2283 82.3364C10.8567 83.244 9.65627 85.9084 10.5639 88.28L11.6473 91.1494C12.5549 93.521 15.2193 94.7215 17.591 93.8138L22.2446 92.0482L24.0032 96.6831C24.9107 99.0547 27.5751 100.255 29.9467 99.3475L32.8162 98.2642C35.1878 97.3565 36.3881 94.6921 35.4806 92.3205L33.7246 87.6925L38.3499 85.9378C40.7215 85.03 41.922 82.3657 41.0142 79.9941L39.931 77.1248C39.0233 74.753 36.3881 73.5527 33.9873 74.4602L29.369 76.2125L27.6045 71.5617C26.6968 69.1899 24.0324 67.9896 21.6608 68.8971Z" fill="black" fill-opacity="0.2"/>
<path opacity="0.7" d="M15.6734 73.8568L18.1375 72.9265C20.1742 72.1471 22.4621 73.178 23.2416 75.2147L30.0051 93.0414C30.7846 95.078 29.7539 97.366 27.7172 98.1454L25.253 99.0757C23.2165 99.8552 20.9284 98.8244 20.149 96.7878L13.3854 78.9611C12.6059 76.9244 13.6368 74.6363 15.6734 73.8568Z" fill="#B3CAF8"/>
<path opacity="0.89" d="M33.827 79.992L34.7573 82.456C35.5367 84.4926 34.5058 86.7806 32.4692 87.56L14.6425 94.3238C12.6059 95.1032 10.3178 94.0723 9.53838 92.0356L8.60808 89.5716C7.82863 87.535 8.8595 85.2469 10.8961 84.4674L28.7229 77.7038C30.7846 76.9244 33.0475 77.9553 33.827 79.992Z" fill="#B3CAF8"/>
</g>
<defs>
<clipPath id="clip0_27:380">
<rect width="140" height="105" fill="white"/>
</clipPath>
</defs>
</svg>
